<svg xmlns="http://www.w3.org/2000/svg" xmlns:xlink="http://www.w3.org/1999/xlink" zoomAndPan="magnify" preserveAspectRatio="xMidYMid meet" version="1.0" viewBox="633.47 361.28 179.51 83.84"><defs><g/></defs><g fill="#ffffff" fill-opacity="1"><g transform="translate(635.990394, 445.116549)"><g><path d="M 64.535156 -30.777344 C 60.246094 -19.117188 54.183594 -11.75 48.121094 -11.75 C 45.792969 -11.75 44.207031 -13.054688 44.207031 -15.574219 C 44.207031 -16.785156 44.578125 -18.558594 45.230469 -20.332031 L 63.417969 -71.15625 C 63.976562 -72.742188 64.257812 -74.140625 64.257812 -75.355469 C 64.257812 -79.644531 61.085938 -81.695312 57.636719 -81.695312 C 54 -81.695312 49.988281 -79.550781 48.496094 -75.449219 C 45.605469 -79.644531 39.449219 -80.949219 35.347656 -80.949219 C 26.207031 -80.949219 17.160156 -75.726562 13.988281 -66.773438 L -1.210938 -23.96875 C -2.050781 -21.636719 -2.519531 -19.210938 -2.519531 -16.972656 C -2.519531 -7.085938 5.410156 0 15.761719 0 C 21.261719 0 27.324219 -2.425781 31.988281 -6.996094 C 35.160156 -2.425781 40.753906 0 47.003906 0 C 60.992188 0 70.226562 -11.5625 75.820312 -28.445312 C 76.101562 -29.191406 76.195312 -29.9375 76.195312 -30.589844 C 76.195312 -33.761719 73.582031 -35.625 70.691406 -35.625 C 68.171875 -35.625 65.5625 -34.132812 64.535156 -30.777344 Z M 18.933594 -14.082031 C 15.480469 -14.082031 13.335938 -16.507812 13.335938 -19.863281 C 13.335938 -20.984375 13.617188 -22.289062 14.082031 -23.6875 L 26.953125 -60.339844 C 28.539062 -64.722656 31.800781 -67.425781 35.53125 -67.425781 C 39.730469 -67.425781 43.460938 -63.976562 43.460938 -60.152344 C 43.460938 -59.5 43.273438 -58.847656 43.085938 -58.195312 L 31.894531 -26.765625 C 28.257812 -16.507812 23.6875 -14.082031 18.933594 -14.082031 Z M 18.933594 -14.082031 "/></g></g></g><g fill="#ffffff" fill-opacity="1"><g transform="translate(695.948577, 445.116549)"><g><path d="M 44.300781 -80.949219 C 41.6875 -80.949219 38.332031 -80.390625 36 -78.710938 C 35.8125 -81.789062 32.734375 -83.839844 29.378906 -83.839844 C 26.019531 -83.839844 22.570312 -81.976562 20.890625 -77.3125 L -2.703125 -9.699219 C -3.078125 -8.578125 -3.355469 -7.554688 -3.355469 -6.621094 C -3.355469 -2.519531 0.09375 0 3.824219 0 C 6.902344 0 10.164062 -1.863281 11.65625 -6.25 L 17.90625 -24.621094 C 21.171875 -21.542969 25.925781 -19.585938 31.148438 -19.585938 C 40.289062 -19.585938 50.175781 -25.179688 54.371094 -37.023438 L 61.738281 -57.730469 C 62.578125 -60.058594 63.042969 -62.484375 63.042969 -64.535156 C 63.042969 -75.261719 54.558594 -80.949219 44.300781 -80.949219 Z M 46.257812 -57.261719 L 40.570312 -40.570312 C 38.984375 -35.90625 35.4375 -33.480469 31.800781 -33.480469 C 27.699219 -33.480469 24.339844 -36.558594 24.339844 -40.753906 C 24.339844 -41.5 24.433594 -42.0625 24.714844 -42.808594 L 31.148438 -61.738281 C 32.921875 -66.867188 36.746094 -68.640625 40.476562 -68.640625 C 44.207031 -68.640625 47.003906 -66.214844 47.003906 -61.738281 C 47.003906 -60.527344 46.816406 -59.035156 46.257812 -57.261719 Z M 46.257812 -57.261719 "/></g></g></g><g fill="#ffffff" fill-opacity="1"><g transform="translate(749.938918, 445.116549)"><g><path d="M 44.300781 -80.949219 C 41.6875 -80.949219 38.332031 -80.390625 36 -78.710938 C 35.8125 -81.789062 32.734375 -83.839844 29.378906 -83.839844 C 26.019531 -83.839844 22.570312 -81.976562 20.890625 -77.3125 L -2.703125 -9.699219 C -3.078125 -8.578125 -3.355469 -7.554688 -3.355469 -6.621094 C -3.355469 -2.519531 0.09375 0 3.824219 0 C 6.902344 0 10.164062 -1.863281 11.65625 -6.25 L 17.90625 -24.621094 C 21.171875 -21.542969 25.925781 -19.585938 31.148438 -19.585938 C 40.289062 -19.585938 50.175781 -25.179688 54.371094 -37.023438 L 61.738281 -57.730469 C 62.578125 -60.058594 63.042969 -62.484375 63.042969 -64.535156 C 63.042969 -75.261719 54.558594 -80.949219 44.300781 -80.949219 Z M 46.257812 -57.261719 L 40.570312 -40.570312 C 38.984375 -35.90625 35.4375 -33.480469 31.800781 -33.480469 C 27.699219 -33.480469 24.339844 -36.558594 24.339844 -40.753906 C 24.339844 -41.5 24.433594 -42.0625 24.714844 -42.808594 L 31.148438 -61.738281 C 32.921875 -66.867188 36.746094 -68.640625 40.476562 -68.640625 C 44.207031 -68.640625 47.003906 -66.214844 47.003906 -61.738281 C 47.003906 -60.527344 46.816406 -59.035156 46.257812 -57.261719 Z M 46.257812 -57.261719 "/></g></g></g></svg>